{
    "accessors" : [
        {
            "bufferView" : 0,
            "componentType" : 5123,
            "count" : 624,
            "max" : [
                397
            ],
            "min" : [
                0
            ],
            "type" : "SCALAR"
        },
        {
            "bufferView" : 1,
            "componentType" : 5126,
            "count" : 398,
            "max" : [
                59.055118560791016,
                275.5906066894531,
                -0.0
            ],
            "min" : [
                0.0,
                0.0,
                -629.9212646484375
            ],
            "type" : "VEC3"
        },
        {
            "bufferView" : 2,
            "componentType" : 5126,
            "count" : 398,
            "max" : [
                1.0,
                1.0,
                1.0
            ],
            "min" : [
                -1.0,
                -1.0,
                -1.0
            ],
            "type" : "VEC3"
        },
        {
            "bufferView" : 3,
            "componentType" : 5123,
            "count" : 624,
            "max" : [
                397
            ],
            "min" : [
                0
            ],
            "type" : "SCALAR"
        },
        {
            "bufferView" : 4,
            "componentType" : 5126,
            "count" : 398,
            "max" : [
                59.055118560791016,
                275.5906066894531,
                -0.0
            ],
            "min" : [
                0.0,
                0.0,
                -629.9212646484375
            ],
            "type" : "VEC3"
        },
        {
            "bufferView" : 5,
            "componentType" : 5126,
            "count" : 398,
            "max" : [
                1.0,
                1.0,
                1.0
            ],
            "min" : [
                -1.0,
                -1.0,
                -1.0
            ],
            "type" : "VEC3"
        },
        {
            "bufferView" : 6,
            "componentType" : 5123,
            "count" : 852,
            "max" : [
                538
            ],
            "min" : [
                0
            ],
            "type" : "SCALAR"
        },
        {
            "bufferView" : 7,
            "componentType" : 5126,
            "count" : 539,
            "max" : [
                629.9212646484375,
                629.9212646484375,
                -0.0
            ],
            "min" : [
                0.0,
                0.0,
                -629.9212646484375
            ],
            "type" : "VEC3"
        },
        {
            "bufferView" : 8,
            "componentType" : 5126,
            "count" : 539,
            "max" : [
                1.0,
                1.0,
                1.0
            ],
            "min" : [
                -1.0,
                -1.0,
                -1.0
            ],
            "type" : "VEC3"
        },
        {
            "bufferView" : 9,
            "componentType" : 5123,
            "count" : 30,
            "max" : [
                21
            ],
            "min" : [
                0
            ],
            "type" : "SCALAR"
        },
        {
            "bufferView" : 10,
            "componentType" : 5126,
            "count" : 22,
            "max" : [
                39.370079040527344,
                236.22048950195312,
                -0.0
            ],
            "min" : [
                0.0,
                0.0,
                -590.5512084960938
            ],
            "type" : "VEC3"
        },
        {
            "bufferView" : 11,
            "componentType" : 5126,
            "count" : 22,
            "max" : [
                0.0,
                2.2593181492336356e-10,
                1.0
            ],
            "min" : [
                -1.0,
                -0.0,
                -1.0
            ],
            "type" : "VEC3"
        },
        {
            "bufferView" : 12,
            "componentType" : 5123,
            "count" : 30,
            "max" : [
                21
            ],
            "min" : [
                0
            ],
            "type" : "SCALAR"
        },
        {
            "bufferView" : 13,
            "componentType" : 5126,
            "count" : 22,
            "max" : [
                39.370079040527344,
                236.22048950195312,
                -0.0
            ],
            "min" : [
                0.0,
                0.0,
                -590.5512084960938
            ],
            "type" : "VEC3"
        },
        {
            "bufferView" : 14,
            "componentType" : 5126,
            "count" : 22,
            "max" : [
                1.0,
                0.0,
                1.0
            ],
            "min" : [
                -0.0,
                -2.2593181492336356e-10,
                -1.0
            ],
            "type" : "VEC3"
        },
        {
            "bufferView" : 15,
            "componentType" : 5123,
            "count" : 852,
            "max" : [
                538
            ],
            "min" : [
                0
            ],
            "type" : "SCALAR"
        },
        {
            "bufferView" : 16,
            "componentType" : 5126,
            "count" : 539,
            "max" : [
                629.9212646484375,
                629.9212646484375,
                -0.0
            ],
            "min" : [
                0.0,
                0.0,
                -629.9212646484375
            ],
            "type" : "VEC3"
        },
        {
            "bufferView" : 17,
            "componentType" : 5126,
            "count" : 539,
            "max" : [
                1.0,
                1.0,
                1.0
            ],
            "min" : [
                -1.0,
                -1.0,
                -1.0
            ],
            "type" : "VEC3"
        },
        {
            "bufferView" : 18,
            "componentType" : 5123,
            "count" : 30,
            "max" : [
                21
            ],
            "min" : [
                0
            ],
            "type" : "SCALAR"
        },
        {
            "bufferView" : 19,
            "componentType" : 5126,
            "count" : 22,
            "max" : [
                39.370079040527344,
                236.22048950195312,
                -0.0
            ],
            "min" : [
                0.0,
                0.0,
                -590.5512084960938
            ],
            "type" : "VEC3"
        },
        {
            "bufferView" : 20,
            "componentType" : 5126,
            "count" : 22,
            "max" : [
                0.0,
                2.2593181492336356e-10,
                1.0
            ],
            "min" : [
                -1.0,
                -0.0,
                -1.0
            ],
            "type" : "VEC3"
        },
        {
            "bufferView" : 21,
            "componentType" : 5123,
            "count" : 30,
            "max" : [
                21
            ],
            "min" : [
                0
            ],
            "type" : "SCALAR"
        },
        {
            "bufferView" : 22,
            "componentType" : 5126,
            "count" : 22,
            "max" : [
                39.370079040527344,
                236.22048950195312,
                -0.0
            ],
            "min" : [
                0.0,
                0.0,
                -590.5512084960938
            ],
            "type" : "VEC3"
        },
        {
            "bufferView" : 23,
            "componentType" : 5126,
            "count" : 22,
            "max" : [
                1.0,
                0.0,
                1.0
            ],
            "min" : [
                -0.0,
                -2.2593181492336356e-10,
                -1.0
            ],
            "type" : "VEC3"
        }
    ],
    "asset" : {
        "generator" : "Khronos Blender glTF 2.0 exporter",
        "version" : "2.0"
    },
    "bufferViews" : [
        {
            "buffer" : 0,
            "byteLength" : 1248,
            "byteOffset" : 0,
            "target" : 34963
        },
        {
            "buffer" : 0,
            "byteLength" : 4776,
            "byteOffset" : 1248,
            "target" : 34962
        },
        {
            "buffer" : 0,
            "byteLength" : 4776,
            "byteOffset" : 6024,
            "target" : 34962
        },
        {
            "buffer" : 0,
            "byteLength" : 1248,
            "byteOffset" : 10800,
            "target" : 34963
        },
        {
            "buffer" : 0,
            "byteLength" : 4776,
            "byteOffset" : 12048,
            "target" : 34962
        },
        {
            "buffer" : 0,
            "byteLength" : 4776,
            "byteOffset" : 16824,
            "target" : 34962
        },
        {
            "buffer" : 0,
            "byteLength" : 1704,
            "byteOffset" : 21600,
            "target" : 34963
        },
        {
            "buffer" : 0,
            "byteLength" : 6468,
            "byteOffset" : 23304,
            "target" : 34962
        },
        {
            "buffer" : 0,
            "byteLength" : 6468,
            "byteOffset" : 29772,
            "target" : 34962
        },
        {
            "buffer" : 0,
            "byteLength" : 60,
            "byteOffset" : 36240,
            "target" : 34963
        },
        {
            "buffer" : 0,
            "byteLength" : 264,
            "byteOffset" : 36300,
            "target" : 34962
        },
        {
            "buffer" : 0,
            "byteLength" : 264,
            "byteOffset" : 36564,
            "target" : 34962
        },
        {
            "buffer" : 0,
            "byteLength" : 60,
            "byteOffset" : 36828,
            "target" : 34963
        },
        {
            "buffer" : 0,
            "byteLength" : 264,
            "byteOffset" : 36888,
            "target" : 34962
        },
        {
            "buffer" : 0,
            "byteLength" : 264,
            "byteOffset" : 37152,
            "target" : 34962
        },
        {
            "buffer" : 0,
            "byteLength" : 1704,
            "byteOffset" : 37416,
            "target" : 34963
        },
        {
            "buffer" : 0,
            "byteLength" : 6468,
            "byteOffset" : 39120,
            "target" : 34962
        },
        {
            "buffer" : 0,
            "byteLength" : 6468,
            "byteOffset" : 45588,
            "target" : 34962
        },
        {
            "buffer" : 0,
            "byteLength" : 60,
            "byteOffset" : 52056,
            "target" : 34963
        },
        {
            "buffer" : 0,
            "byteLength" : 264,
            "byteOffset" : 52116,
            "target" : 34962
        },
        {
            "buffer" : 0,
            "byteLength" : 264,
            "byteOffset" : 52380,
            "target" : 34962
        },
        {
            "buffer" : 0,
            "byteLength" : 60,
            "byteOffset" : 52644,
            "target" : 34963
        },
        {
            "buffer" : 0,
            "byteLength" : 264,
            "byteOffset" : 52704,
            "target" : 34962
        },
        {
            "buffer" : 0,
            "byteLength" : 264,
            "byteOffset" : 52968,
            "target" : 34962
        }
    ],
    "buffers" : [
        {
            "byteLength" : 53232,
            "uri" : "bldg_0003_length_v02.bin"
        }
    ],
    "materials" : [
        {
            "name" : "Color_D05.011",
            "pbrMetallicRoughness" : {
                "baseColorFactor" : [
                    1.0,
                    0.7490196228027344,
                    0.0,
                    1.0
                ],
                "metallicFactor" : 0.0
            }
        },
        {
            "alphaMode" : "BLEND",
            "name" : "edge_color000255.011",
            "pbrMetallicRoughness" : {
                "baseColorFactor" : [
                    0.6400000190734865,
                    0.6400000190734865,
                    0.6400000190734865,
                    1.0
                ],
                "metallicFactor" : 0.0
            }
        },
        {
            "alphaMode" : "BLEND",
            "name" : "edge_color2551910255.004",
            "pbrMetallicRoughness" : {
                "baseColorFactor" : [
                    0.6400000190734865,
                    0.6400000190734865,
                    0.6400000190734865,
                    1.0
                ],
                "metallicFactor" : 0.0
            }
        },
        {
            "alphaMode" : "BLEND",
            "name" : "edge_color8087112255.011",
            "pbrMetallicRoughness" : {
                "baseColorFactor" : [
                    0.6400000190734865,
                    0.6400000190734865,
                    0.6400000190734865,
                    1.0
                ],
                "metallicFactor" : 0.0
            }
        },
        {
            "name" : "material_4.011",
            "pbrMetallicRoughness" : {
                "baseColorFactor" : [
                    0.3137255000133141,
                    0.3411765149411039,
                    0.4392157143237547,
                    1.0
                ],
                "metallicFactor" : 0.0
            }
        },
        {
            "alphaMode" : "BLEND",
            "name" : "Translucent_Glass_Gray.011",
            "pbrMetallicRoughness" : {
                "baseColorFactor" : [
                    0.5019608095580459,
                    0.5019608095580459,
                    0.5019608095580459,
                    0.49803921580314636
                ],
                "metallicFactor" : 0.0
            }
        }
    ],
    "meshes" : [
        {
            "name" : "ID32",
            "primitives" : [
                {
                    "attributes" : {
                        "NORMAL" : 2,
                        "POSITION" : 1
                    },
                    "indices" : 0,
                    "material" : 4
                }
            ]
        },
        {
            "name" : "ID32.001",
            "primitives" : [
                {
                    "attributes" : {
                        "NORMAL" : 5,
                        "POSITION" : 4
                    },
                    "indices" : 3,
                    "material" : 4
                }
            ]
        },
        {
            "name" : "ID43.001",
            "primitives" : [
                {
                    "attributes" : {
                        "NORMAL" : 8,
                        "POSITION" : 7
                    },
                    "indices" : 6,
                    "material" : 4
                }
            ]
        },
        {
            "name" : "ID15.008",
            "primitives" : [
                {
                    "attributes" : {
                        "NORMAL" : 11,
                        "POSITION" : 10
                    },
                    "indices" : 9,
                    "material" : 0
                },
                {
                    "attributes" : {
                        "NORMAL" : 14,
                        "POSITION" : 13
                    },
                    "indices" : 12,
                    "material" : 5
                }
            ]
        },
        {
            "name" : "ID43",
            "primitives" : [
                {
                    "attributes" : {
                        "NORMAL" : 17,
                        "POSITION" : 16
                    },
                    "indices" : 15,
                    "material" : 4
                }
            ]
        },
        {
            "name" : "ID15.009",
            "primitives" : [
                {
                    "attributes" : {
                        "NORMAL" : 20,
                        "POSITION" : 19
                    },
                    "indices" : 18,
                    "material" : 0
                },
                {
                    "attributes" : {
                        "NORMAL" : 23,
                        "POSITION" : 22
                    },
                    "indices" : 21,
                    "material" : 5
                }
            ]
        }
    ],
    "nodes" : [
        {
            "mesh" : 0,
            "name" : "frame",
            "translation" : [
                -305.11810302734375,
                334.6456604003906,
                314.9606018066406
            ]
        },
        {
            "mesh" : 1,
            "name" : "frame_collider",
            "translation" : [
                -305.11810302734375,
                334.6456604003906,
                314.9606018066406
            ]
        },
        {
            "mesh" : 4,
            "name" : "massing",
            "translation" : [
                -314.9606018066406,
                -1.9426700248459383e-07,
                314.9606018066406
            ]
        },
        {
            "mesh" : 2,
            "name" : "massing_collider",
            "translation" : [
                -314.9606018066406,
                -1.9426700248459383e-07,
                314.9606018066406
            ]
        },
        {
            "children" : [
                0,
                1,
                2,
                3,
                5,
                6
            ],
            "name" : "SketchUp",
            "scale" : [
                0.02539999969303608,
                0.02539999969303608,
                0.02539999969303608
            ]
        },
        {
            "mesh" : 3,
            "name" : "window",
            "translation" : [
                -295.2756042480469,
                354.3306884765625,
                295.2756042480469
            ]
        },
        {
            "mesh" : 5,
            "name" : "window_collider",
            "translation" : [
                -295.2756042480469,
                354.3306884765625,
                295.2756042480469
            ]
        }
    ],
    "scene" : 0,
    "scenes" : [
        {
            "name" : "Scene",
            "nodes" : [
                4
            ]
        }
    ]
}
