{
    "accessors" : [
        {
            "bufferView" : 0,
            "componentType" : 5123,
            "count" : 213,
            "max" : [
                133
            ],
            "min" : [
                0
            ],
            "type" : "SCALAR"
        },
        {
            "bufferView" : 1,
            "componentType" : 5126,
            "count" : 134,
            "max" : [
                177.16539001464844,
                629.9212646484375,
                -137.79530334472656
            ],
            "min" : [
                137.79530334472656,
                -4.316941897286597e-07,
                -177.16539001464844
            ],
            "type" : "VEC3"
        },
        {
            "bufferView" : 2,
            "componentType" : 5126,
            "count" : 134,
            "max" : [
                1.0,
                -0.0,
                1.0
            ],
            "min" : [
                -1.0,
                -1.0,
                -1.0
            ],
            "type" : "VEC3"
        },
        {
            "bufferView" : 3,
            "componentType" : 5123,
            "count" : 213,
            "max" : [
                133
            ],
            "min" : [
                0
            ],
            "type" : "SCALAR"
        },
        {
            "bufferView" : 4,
            "componentType" : 5126,
            "count" : 134,
            "max" : [
                177.16539001464844,
                629.9212646484375,
                -137.79530334472656
            ],
            "min" : [
                137.79530334472656,
                -4.316941897286597e-07,
                -177.16539001464844
            ],
            "type" : "VEC3"
        },
        {
            "bufferView" : 5,
            "componentType" : 5126,
            "count" : 134,
            "max" : [
                1.0,
                1.0,
                1.0
            ],
            "min" : [
                -1.0,
                0.0,
                -1.0
            ],
            "type" : "VEC3"
        },
        {
            "bufferView" : 6,
            "componentType" : 5123,
            "count" : 3318,
            "max" : [
                2153
            ],
            "min" : [
                0
            ],
            "type" : "SCALAR"
        },
        {
            "bufferView" : 7,
            "componentType" : 5126,
            "count" : 2154,
            "max" : [
                314.9606018066406,
                629.9212646484375,
                6.821210263296962e-13
            ],
            "min" : [
                -3.999623004347086e-06,
                -4.316941897286597e-07,
                -314.9606018066406
            ],
            "type" : "VEC3"
        },
        {
            "bufferView" : 8,
            "componentType" : 5126,
            "count" : 2154,
            "max" : [
                1.0,
                1.0,
                1.0
            ],
            "min" : [
                -1.0,
                -1.0,
                -1.0
            ],
            "type" : "VEC3"
        },
        {
            "bufferView" : 9,
            "componentType" : 5123,
            "count" : 3318,
            "max" : [
                2153
            ],
            "min" : [
                0
            ],
            "type" : "SCALAR"
        },
        {
            "bufferView" : 10,
            "componentType" : 5126,
            "count" : 2154,
            "max" : [
                314.9606018066406,
                629.9212646484375,
                6.821210263296962e-13
            ],
            "min" : [
                -3.999623004347086e-06,
                -4.316941897286597e-07,
                -314.9606018066406
            ],
            "type" : "VEC3"
        },
        {
            "bufferView" : 11,
            "componentType" : 5126,
            "count" : 2154,
            "max" : [
                1.0,
                1.0,
                1.0
            ],
            "min" : [
                -1.0,
                -1.0,
                -1.0
            ],
            "type" : "VEC3"
        },
        {
            "bufferView" : 12,
            "componentType" : 5123,
            "count" : 84,
            "max" : [
                69
            ],
            "min" : [
                0
            ],
            "type" : "SCALAR"
        },
        {
            "bufferView" : 13,
            "componentType" : 5126,
            "count" : 70,
            "max" : [
                196.8503875732422,
                86.2591781616211,
                -137.79530334472656
            ],
            "min" : [
                137.79530334472656,
                -4.316941897286597e-07,
                -196.8503875732422
            ],
            "type" : "VEC3"
        },
        {
            "bufferView" : 14,
            "componentType" : 5126,
            "count" : 70,
            "max" : [
                1.0,
                0.8944271802902222,
                1.0
            ],
            "min" : [
                -1.0,
                -0.8944271802902222,
                -1.0
            ],
            "type" : "VEC3"
        },
        {
            "bufferView" : 15,
            "componentType" : 5123,
            "count" : 213,
            "max" : [
                133
            ],
            "min" : [
                0
            ],
            "type" : "SCALAR"
        },
        {
            "bufferView" : 16,
            "componentType" : 5126,
            "count" : 134,
            "max" : [
                177.16539001464844,
                629.9212646484375,
                -137.79530334472656
            ],
            "min" : [
                137.79530334472656,
                -4.316941897286597e-07,
                -177.16539001464844
            ],
            "type" : "VEC3"
        },
        {
            "bufferView" : 17,
            "componentType" : 5126,
            "count" : 134,
            "max" : [
                1.0,
                -0.0,
                1.0
            ],
            "min" : [
                -1.0,
                -1.0,
                -1.0
            ],
            "type" : "VEC3"
        },
        {
            "bufferView" : 18,
            "componentType" : 5123,
            "count" : 213,
            "max" : [
                133
            ],
            "min" : [
                0
            ],
            "type" : "SCALAR"
        },
        {
            "bufferView" : 19,
            "componentType" : 5126,
            "count" : 134,
            "max" : [
                177.16539001464844,
                629.9212646484375,
                -137.79530334472656
            ],
            "min" : [
                137.79530334472656,
                -4.316941897286597e-07,
                -177.16539001464844
            ],
            "type" : "VEC3"
        },
        {
            "bufferView" : 20,
            "componentType" : 5126,
            "count" : 134,
            "max" : [
                1.0,
                1.0,
                1.0
            ],
            "min" : [
                -1.0,
                0.0,
                -1.0
            ],
            "type" : "VEC3"
        },
        {
            "bufferView" : 21,
            "componentType" : 5123,
            "count" : 84,
            "max" : [
                69
            ],
            "min" : [
                0
            ],
            "type" : "SCALAR"
        },
        {
            "bufferView" : 22,
            "componentType" : 5126,
            "count" : 70,
            "max" : [
                196.8503875732422,
                86.2591781616211,
                -137.79530334472656
            ],
            "min" : [
                137.79530334472656,
                -4.316941897286597e-07,
                -196.8503875732422
            ],
            "type" : "VEC3"
        },
        {
            "bufferView" : 23,
            "componentType" : 5126,
            "count" : 70,
            "max" : [
                1.0,
                0.8944271802902222,
                1.0
            ],
            "min" : [
                -1.0,
                -0.8944271802902222,
                -1.0
            ],
            "type" : "VEC3"
        }
    ],
    "asset" : {
        "generator" : "Khronos Blender glTF 2.0 exporter",
        "version" : "2.0"
    },
    "bufferViews" : [
        {
            "buffer" : 0,
            "byteLength" : 426,
            "byteOffset" : 0,
            "target" : 34963
        },
        {
            "buffer" : 0,
            "byteLength" : 1608,
            "byteOffset" : 428,
            "target" : 34962
        },
        {
            "buffer" : 0,
            "byteLength" : 1608,
            "byteOffset" : 2036,
            "target" : 34962
        },
        {
            "buffer" : 0,
            "byteLength" : 426,
            "byteOffset" : 3644,
            "target" : 34963
        },
        {
            "buffer" : 0,
            "byteLength" : 1608,
            "byteOffset" : 4072,
            "target" : 34962
        },
        {
            "buffer" : 0,
            "byteLength" : 1608,
            "byteOffset" : 5680,
            "target" : 34962
        },
        {
            "buffer" : 0,
            "byteLength" : 6636,
            "byteOffset" : 7288,
            "target" : 34963
        },
        {
            "buffer" : 0,
            "byteLength" : 25848,
            "byteOffset" : 13924,
            "target" : 34962
        },
        {
            "buffer" : 0,
            "byteLength" : 25848,
            "byteOffset" : 39772,
            "target" : 34962
        },
        {
            "buffer" : 0,
            "byteLength" : 6636,
            "byteOffset" : 65620,
            "target" : 34963
        },
        {
            "buffer" : 0,
            "byteLength" : 25848,
            "byteOffset" : 72256,
            "target" : 34962
        },
        {
            "buffer" : 0,
            "byteLength" : 25848,
            "byteOffset" : 98104,
            "target" : 34962
        },
        {
            "buffer" : 0,
            "byteLength" : 168,
            "byteOffset" : 123952,
            "target" : 34963
        },
        {
            "buffer" : 0,
            "byteLength" : 840,
            "byteOffset" : 124120,
            "target" : 34962
        },
        {
            "buffer" : 0,
            "byteLength" : 840,
            "byteOffset" : 124960,
            "target" : 34962
        },
        {
            "buffer" : 0,
            "byteLength" : 426,
            "byteOffset" : 125800,
            "target" : 34963
        },
        {
            "buffer" : 0,
            "byteLength" : 1608,
            "byteOffset" : 126228,
            "target" : 34962
        },
        {
            "buffer" : 0,
            "byteLength" : 1608,
            "byteOffset" : 127836,
            "target" : 34962
        },
        {
            "buffer" : 0,
            "byteLength" : 426,
            "byteOffset" : 129444,
            "target" : 34963
        },
        {
            "buffer" : 0,
            "byteLength" : 1608,
            "byteOffset" : 129872,
            "target" : 34962
        },
        {
            "buffer" : 0,
            "byteLength" : 1608,
            "byteOffset" : 131480,
            "target" : 34962
        },
        {
            "buffer" : 0,
            "byteLength" : 168,
            "byteOffset" : 133088,
            "target" : 34963
        },
        {
            "buffer" : 0,
            "byteLength" : 840,
            "byteOffset" : 133256,
            "target" : 34962
        },
        {
            "buffer" : 0,
            "byteLength" : 840,
            "byteOffset" : 134096,
            "target" : 34962
        }
    ],
    "buffers" : [
        {
            "byteLength" : 134936,
            "uri" : "ramp_0003_spiral_v04.bin"
        }
    ],
    "materials" : [
        {
            "name" : "Color_D05.002",
            "pbrMetallicRoughness" : {
                "baseColorFactor" : [
                    1.0,
                    0.7490196228027344,
                    0.0,
                    1.0
                ],
                "metallicFactor" : 0.0
            }
        },
        {
            "alphaMode" : "BLEND",
            "name" : "edge_color8087112255.002",
            "pbrMetallicRoughness" : {
                "baseColorFactor" : [
                    0.6400000190734865,
                    0.6400000190734865,
                    0.6400000190734865,
                    1.0
                ],
                "metallicFactor" : 0.0
            }
        },
        {
            "name" : "material_4.002",
            "pbrMetallicRoughness" : {
                "baseColorFactor" : [
                    0.3137255000133141,
                    0.3411765149411039,
                    0.4392157143237547,
                    1.0
                ],
                "metallicFactor" : 0.0
            }
        }
    ],
    "meshes" : [
        {
            "name" : "ID121.001",
            "primitives" : [
                {
                    "attributes" : {
                        "NORMAL" : 2,
                        "POSITION" : 1
                    },
                    "indices" : 0,
                    "material" : 2
                },
                {
                    "attributes" : {
                        "NORMAL" : 5,
                        "POSITION" : 4
                    },
                    "indices" : 3,
                    "material" : 0
                }
            ]
        },
        {
            "name" : "ID115.001",
            "primitives" : [
                {
                    "attributes" : {
                        "NORMAL" : 8,
                        "POSITION" : 7
                    },
                    "indices" : 6,
                    "material" : 2
                }
            ]
        },
        {
            "name" : "ID115",
            "primitives" : [
                {
                    "attributes" : {
                        "NORMAL" : 11,
                        "POSITION" : 10
                    },
                    "indices" : 9,
                    "material" : 2
                }
            ]
        },
        {
            "name" : "ID127.001",
            "primitives" : [
                {
                    "attributes" : {
                        "NORMAL" : 14,
                        "POSITION" : 13
                    },
                    "indices" : 12,
                    "material" : 2
                }
            ]
        },
        {
            "name" : "ID121",
            "primitives" : [
                {
                    "attributes" : {
                        "NORMAL" : 17,
                        "POSITION" : 16
                    },
                    "indices" : 15,
                    "material" : 2
                },
                {
                    "attributes" : {
                        "NORMAL" : 20,
                        "POSITION" : 19
                    },
                    "indices" : 18,
                    "material" : 0
                }
            ]
        },
        {
            "name" : "ID127",
            "primitives" : [
                {
                    "attributes" : {
                        "NORMAL" : 23,
                        "POSITION" : 22
                    },
                    "indices" : 21,
                    "material" : 2
                }
            ]
        }
    ],
    "nodes" : [
        {
            "mesh" : 4,
            "name" : "core 1",
            "translation" : [
                -157.4803009033203,
                5.440961103886366e-08,
                157.4803009033203
            ]
        },
        {
            "mesh" : 0,
            "name" : "core 1_collider",
            "translation" : [
                -157.4803009033203,
                5.440961103886366e-08,
                157.4803009033203
            ]
        },
        {
            "mesh" : 5,
            "name" : "core 2",
            "translation" : [
                -157.4803009033203,
                5.440961103886366e-08,
                157.4803009033203
            ]
        },
        {
            "mesh" : 3,
            "name" : "core 2_collider",
            "translation" : [
                -157.4803009033203,
                5.440961103886366e-08,
                157.4803009033203
            ]
        },
        {
            "mesh" : 2,
            "name" : "ramp massing 1",
            "translation" : [
                -157.4803009033203,
                5.440961103886366e-08,
                157.4803009033203
            ]
        },
        {
            "mesh" : 1,
            "name" : "ramp massing 1_collider",
            "translation" : [
                -157.4803009033203,
                5.440961103886366e-08,
                157.4803009033203
            ]
        },
        {
            "children" : [
                0,
                1,
                2,
                3,
                4,
                5
            ],
            "name" : "SketchUp",
            "scale" : [
                0.02539999969303608,
                0.02539999969303608,
                0.02539999969303608
            ]
        }
    ],
    "scene" : 0,
    "scenes" : [
        {
            "name" : "Scene",
            "nodes" : [
                6
            ]
        }
    ]
}
