{
    "asset" : {
        "generator" : "Khronos Blender glTF 2.0 I/O",
        "version" : "2.0"
    },
    "scene" : 0,
    "scenes" : [
        {
            "name" : "Scene",
            "nodes" : [
                2,
                3,
                4
            ]
        }
    ],
    "nodes" : [
        {
            "mesh" : 0,
            "name" : "Massing"
        },
        {
            "mesh" : 1,
            "name" : "Massing_collider"
        },
        {
            "children" : [
                0,
                1
            ],
            "name" : "SketchUp",
            "rotation" : [
                0.7071068286895752,
                0,
                0,
                0.7071067094802856
            ],
            "scale" : [
                0.02539999969303608,
                0.02540000155568123,
                0.02540000155568123
            ]
        },
        {
            "name" : "Light",
            "rotation" : [
                0.16907575726509094,
                0.7558802962303162,
                -0.27217137813568115,
                0.570947527885437
            ],
            "translation" : [
                4.076245307922363,
                5.903861999511719,
                -1.0054539442062378
            ]
        },
        {
            "name" : "Camera",
            "rotation" : [
                0.483536034822464,
                0.33687159419059753,
                -0.20870360732078552,
                0.7804827094078064
            ],
            "translation" : [
                7.358891487121582,
                4.958309173583984,
                6.925790786743164
            ]
        }
    ],
    "materials" : [
        {
            "name" : "material_4.007",
            "pbrMetallicRoughness" : {
                "baseColorFactor" : [
                    0.3137255012989044,
                    0.34117650985717773,
                    0.4392157196998596,
                    1
                ],
                "metallicFactor" : 0,
                "roughnessFactor" : 1
            }
        }
    ],
    "meshes" : [
        {
            "name" : "ID4.015",
            "primitives" : [
                {
                    "attributes" : {
                        "POSITION" : 0,
                        "NORMAL" : 1
                    },
                    "indices" : 2,
                    "material" : 0
                }
            ]
        },
        {
            "name" : "ID4.016",
            "primitives" : [
                {
                    "attributes" : {
                        "POSITION" : 3,
                        "NORMAL" : 4
                    },
                    "indices" : 5,
                    "material" : 0
                }
            ]
        }
    ],
    "accessors" : [
        {
            "bufferView" : 0,
            "componentType" : 5126,
            "count" : 664,
            "max" : [
                511.81103515625,
                0,
                0
            ],
            "min" : [
                0,
                -511.81103515625,
                -629.9212646484375
            ],
            "type" : "VEC3"
        },
        {
            "bufferView" : 1,
            "componentType" : 5126,
            "count" : 664,
            "type" : "VEC3"
        },
        {
            "bufferView" : 2,
            "componentType" : 5123,
            "count" : 1032,
            "type" : "SCALAR"
        },
        {
            "bufferView" : 3,
            "componentType" : 5126,
            "count" : 664,
            "max" : [
                511.81103515625,
                0,
                0
            ],
            "min" : [
                0,
                -511.81103515625,
                -629.9212646484375
            ],
            "type" : "VEC3"
        },
        {
            "bufferView" : 4,
            "componentType" : 5126,
            "count" : 664,
            "type" : "VEC3"
        },
        {
            "bufferView" : 5,
            "componentType" : 5123,
            "count" : 1032,
            "type" : "SCALAR"
        }
    ],
    "bufferViews" : [
        {
            "buffer" : 0,
            "byteLength" : 7968,
            "byteOffset" : 0
        },
        {
            "buffer" : 0,
            "byteLength" : 7968,
            "byteOffset" : 7968
        },
        {
            "buffer" : 0,
            "byteLength" : 2064,
            "byteOffset" : 15936
        },
        {
            "buffer" : 0,
            "byteLength" : 7968,
            "byteOffset" : 18000
        },
        {
            "buffer" : 0,
            "byteLength" : 7968,
            "byteOffset" : 25968
        },
        {
            "buffer" : 0,
            "byteLength" : 2064,
            "byteOffset" : 33936
        }
    ],
    "buffers" : [
        {
            "byteLength" : 36000,
            "uri" : "townhouse_0001_v01.bin"
        }
    ]
}
