{
    "accessors" : [
        {
            "bufferView" : 0,
            "componentType" : 5123,
            "count" : 114,
            "max" : [
                57
            ],
            "min" : [
                0
            ],
            "type" : "SCALAR"
        },
        {
            "bufferView" : 1,
            "componentType" : 5126,
            "count" : 58,
            "max" : [
                472.4408874511719,
                216.535400390625,
                -0.0
            ],
            "min" : [
                1.7053029724000551e-13,
                157.4803009033203,
                -472.4408874511719
            ],
            "type" : "VEC3"
        },
        {
            "bufferView" : 2,
            "componentType" : 5126,
            "count" : 58,
            "max" : [
                1.0,
                1.0,
                1.0
            ],
            "min" : [
                -1.0,
                -1.0,
                -1.0
            ],
            "type" : "VEC3"
        },
        {
            "bufferView" : 3,
            "componentType" : 5123,
            "count" : 108,
            "max" : [
                66
            ],
            "min" : [
                0
            ],
            "type" : "SCALAR"
        },
        {
            "bufferView" : 4,
            "componentType" : 5126,
            "count" : 67,
            "max" : [
                452.7558898925781,
                157.4803009033203,
                -19.685039520263672
            ],
            "min" : [
                98.4251937866211,
                0.0,
                -452.7558898925781
            ],
            "type" : "VEC3"
        },
        {
            "bufferView" : 5,
            "componentType" : 5126,
            "count" : 67,
            "max" : [
                1.0,
                0.8399165868759155,
                1.0
            ],
            "min" : [
                -1.0,
                -1.0,
                -1.0
            ],
            "type" : "VEC3"
        },
        {
            "bufferView" : 6,
            "componentType" : 5123,
            "count" : 108,
            "max" : [
                66
            ],
            "min" : [
                0
            ],
            "type" : "SCALAR"
        },
        {
            "bufferView" : 7,
            "componentType" : 5126,
            "count" : 67,
            "max" : [
                452.7558898925781,
                157.4803009033203,
                -19.685039520263672
            ],
            "min" : [
                98.4251937866211,
                0.0,
                -452.7558898925781
            ],
            "type" : "VEC3"
        },
        {
            "bufferView" : 8,
            "componentType" : 5126,
            "count" : 67,
            "max" : [
                1.0,
                0.8399165868759155,
                1.0
            ],
            "min" : [
                -1.0,
                -1.0,
                -1.0
            ],
            "type" : "VEC3"
        },
        {
            "bufferView" : 9,
            "componentType" : 5123,
            "count" : 144,
            "max" : [
                95
            ],
            "min" : [
                0
            ],
            "type" : "SCALAR"
        },
        {
            "bufferView" : 10,
            "componentType" : 5126,
            "count" : 96,
            "max" : [
                433.0708923339844,
                216.535400390625,
                -39.370079040527344
            ],
            "min" : [
                39.370079040527344,
                0.0,
                -433.0708923339844
            ],
            "type" : "VEC3"
        },
        {
            "bufferView" : 11,
            "componentType" : 5126,
            "count" : 96,
            "max" : [
                1.0,
                1.0,
                1.0
            ],
            "min" : [
                -1.0,
                -0.0,
                -1.0
            ],
            "type" : "VEC3"
        },
        {
            "bufferView" : 12,
            "componentType" : 5123,
            "count" : 54,
            "max" : [
                27
            ],
            "min" : [
                0
            ],
            "type" : "SCALAR"
        },
        {
            "bufferView" : 13,
            "componentType" : 5126,
            "count" : 28,
            "max" : [
                472.4408874511719,
                354.3306884765625,
                -0.0
            ],
            "min" : [
                0.0,
                295.2756042480469,
                -472.4408874511719
            ],
            "type" : "VEC3"
        },
        {
            "bufferView" : 14,
            "componentType" : 5126,
            "count" : 28,
            "max" : [
                1.0,
                0.9999999403953552,
                1.0
            ],
            "min" : [
                -1.0,
                -1.0,
                -1.0
            ],
            "type" : "VEC3"
        },
        {
            "bufferView" : 15,
            "componentType" : 5123,
            "count" : 54,
            "max" : [
                27
            ],
            "min" : [
                0
            ],
            "type" : "SCALAR"
        },
        {
            "bufferView" : 16,
            "componentType" : 5126,
            "count" : 28,
            "max" : [
                472.4408874511719,
                354.3306884765625,
                -0.0
            ],
            "min" : [
                0.0,
                295.2756042480469,
                -472.4408874511719
            ],
            "type" : "VEC3"
        },
        {
            "bufferView" : 17,
            "componentType" : 5126,
            "count" : 28,
            "max" : [
                1.0,
                0.9999999403953552,
                1.0
            ],
            "min" : [
                -1.0,
                -1.0,
                -1.0
            ],
            "type" : "VEC3"
        },
        {
            "bufferView" : 18,
            "componentType" : 5123,
            "count" : 30,
            "max" : [
                19
            ],
            "min" : [
                0
            ],
            "type" : "SCALAR"
        },
        {
            "bufferView" : 19,
            "componentType" : 5126,
            "count" : 20,
            "max" : [
                433.0708923339844,
                334.64569091796875,
                -39.370079040527344
            ],
            "min" : [
                39.370079040527344,
                295.2756042480469,
                -433.0708923339844
            ],
            "type" : "VEC3"
        },
        {
            "bufferView" : 20,
            "componentType" : 5126,
            "count" : 20,
            "max" : [
                1.0,
                0.0,
                1.0
            ],
            "min" : [
                -1.0,
                -1.0,
                -1.0
            ],
            "type" : "VEC3"
        },
        {
            "bufferView" : 21,
            "componentType" : 5123,
            "count" : 144,
            "max" : [
                95
            ],
            "min" : [
                0
            ],
            "type" : "SCALAR"
        },
        {
            "bufferView" : 22,
            "componentType" : 5126,
            "count" : 96,
            "max" : [
                433.0708923339844,
                216.535400390625,
                -39.370079040527344
            ],
            "min" : [
                39.370079040527344,
                0.0,
                -433.0708923339844
            ],
            "type" : "VEC3"
        },
        {
            "bufferView" : 23,
            "componentType" : 5126,
            "count" : 96,
            "max" : [
                1.0,
                1.0,
                1.0
            ],
            "min" : [
                -1.0,
                -0.0,
                -1.0
            ],
            "type" : "VEC3"
        },
        {
            "bufferView" : 24,
            "componentType" : 5123,
            "count" : 30,
            "max" : [
                19
            ],
            "min" : [
                0
            ],
            "type" : "SCALAR"
        },
        {
            "bufferView" : 25,
            "componentType" : 5126,
            "count" : 20,
            "max" : [
                433.0708923339844,
                334.64569091796875,
                -39.370079040527344
            ],
            "min" : [
                39.370079040527344,
                295.2756042480469,
                -433.0708923339844
            ],
            "type" : "VEC3"
        },
        {
            "bufferView" : 26,
            "componentType" : 5126,
            "count" : 20,
            "max" : [
                1.0,
                0.0,
                1.0
            ],
            "min" : [
                -1.0,
                -1.0,
                -1.0
            ],
            "type" : "VEC3"
        },
        {
            "bufferView" : 27,
            "componentType" : 5123,
            "count" : 114,
            "max" : [
                57
            ],
            "min" : [
                0
            ],
            "type" : "SCALAR"
        },
        {
            "bufferView" : 28,
            "componentType" : 5126,
            "count" : 58,
            "max" : [
                472.4408874511719,
                216.535400390625,
                -0.0
            ],
            "min" : [
                1.7053029724000551e-13,
                157.4803009033203,
                -472.4408874511719
            ],
            "type" : "VEC3"
        },
        {
            "bufferView" : 29,
            "componentType" : 5126,
            "count" : 58,
            "max" : [
                1.0,
                1.0,
                1.0
            ],
            "min" : [
                -1.0,
                -1.0,
                -1.0
            ],
            "type" : "VEC3"
        }
    ],
    "asset" : {
        "generator" : "Khronos Blender glTF 2.0 exporter",
        "version" : "2.0"
    },
    "bufferViews" : [
        {
            "buffer" : 0,
            "byteLength" : 228,
            "byteOffset" : 0,
            "target" : 34963
        },
        {
            "buffer" : 0,
            "byteLength" : 696,
            "byteOffset" : 228,
            "target" : 34962
        },
        {
            "buffer" : 0,
            "byteLength" : 696,
            "byteOffset" : 924,
            "target" : 34962
        },
        {
            "buffer" : 0,
            "byteLength" : 216,
            "byteOffset" : 1620,
            "target" : 34963
        },
        {
            "buffer" : 0,
            "byteLength" : 804,
            "byteOffset" : 1836,
            "target" : 34962
        },
        {
            "buffer" : 0,
            "byteLength" : 804,
            "byteOffset" : 2640,
            "target" : 34962
        },
        {
            "buffer" : 0,
            "byteLength" : 216,
            "byteOffset" : 3444,
            "target" : 34963
        },
        {
            "buffer" : 0,
            "byteLength" : 804,
            "byteOffset" : 3660,
            "target" : 34962
        },
        {
            "buffer" : 0,
            "byteLength" : 804,
            "byteOffset" : 4464,
            "target" : 34962
        },
        {
            "buffer" : 0,
            "byteLength" : 288,
            "byteOffset" : 5268,
            "target" : 34963
        },
        {
            "buffer" : 0,
            "byteLength" : 1152,
            "byteOffset" : 5556,
            "target" : 34962
        },
        {
            "buffer" : 0,
            "byteLength" : 1152,
            "byteOffset" : 6708,
            "target" : 34962
        },
        {
            "buffer" : 0,
            "byteLength" : 108,
            "byteOffset" : 7860,
            "target" : 34963
        },
        {
            "buffer" : 0,
            "byteLength" : 336,
            "byteOffset" : 7968,
            "target" : 34962
        },
        {
            "buffer" : 0,
            "byteLength" : 336,
            "byteOffset" : 8304,
            "target" : 34962
        },
        {
            "buffer" : 0,
            "byteLength" : 108,
            "byteOffset" : 8640,
            "target" : 34963
        },
        {
            "buffer" : 0,
            "byteLength" : 336,
            "byteOffset" : 8748,
            "target" : 34962
        },
        {
            "buffer" : 0,
            "byteLength" : 336,
            "byteOffset" : 9084,
            "target" : 34962
        },
        {
            "buffer" : 0,
            "byteLength" : 60,
            "byteOffset" : 9420,
            "target" : 34963
        },
        {
            "buffer" : 0,
            "byteLength" : 240,
            "byteOffset" : 9480,
            "target" : 34962
        },
        {
            "buffer" : 0,
            "byteLength" : 240,
            "byteOffset" : 9720,
            "target" : 34962
        },
        {
            "buffer" : 0,
            "byteLength" : 288,
            "byteOffset" : 9960,
            "target" : 34963
        },
        {
            "buffer" : 0,
            "byteLength" : 1152,
            "byteOffset" : 10248,
            "target" : 34962
        },
        {
            "buffer" : 0,
            "byteLength" : 1152,
            "byteOffset" : 11400,
            "target" : 34962
        },
        {
            "buffer" : 0,
            "byteLength" : 60,
            "byteOffset" : 12552,
            "target" : 34963
        },
        {
            "buffer" : 0,
            "byteLength" : 240,
            "byteOffset" : 12612,
            "target" : 34962
        },
        {
            "buffer" : 0,
            "byteLength" : 240,
            "byteOffset" : 12852,
            "target" : 34962
        },
        {
            "buffer" : 0,
            "byteLength" : 228,
            "byteOffset" : 13092,
            "target" : 34963
        },
        {
            "buffer" : 0,
            "byteLength" : 696,
            "byteOffset" : 13320,
            "target" : 34962
        },
        {
            "buffer" : 0,
            "byteLength" : 696,
            "byteOffset" : 14016,
            "target" : 34962
        }
    ],
    "buffers" : [
        {
            "byteLength" : 14712,
            "uri" : "townhouse_0003_v01.bin"
        }
    ],
    "materials" : [
        {
            "alphaMode" : "BLEND",
            "name" : "edge_color000255.003",
            "pbrMetallicRoughness" : {
                "baseColorFactor" : [
                    0.6400000190734865,
                    0.6400000190734865,
                    0.6400000190734865,
                    1.0
                ],
                "metallicFactor" : 0.0
            }
        },
        {
            "alphaMode" : "BLEND",
            "name" : "edge_color129136161255",
            "pbrMetallicRoughness" : {
                "baseColorFactor" : [
                    0.6400000190734865,
                    0.6400000190734865,
                    0.6400000190734865,
                    1.0
                ],
                "metallicFactor" : 0.0
            }
        },
        {
            "alphaMode" : "BLEND",
            "name" : "edge_color2556366255",
            "pbrMetallicRoughness" : {
                "baseColorFactor" : [
                    0.6400000190734865,
                    0.6400000190734865,
                    0.6400000190734865,
                    1.0
                ],
                "metallicFactor" : 0.0
            }
        },
        {
            "name" : "material_16",
            "pbrMetallicRoughness" : {
                "baseColorFactor" : [
                    1.0,
                    0.24705880880355835,
                    0.2588235139846802,
                    1.0
                ],
                "metallicFactor" : 0.0
            }
        },
        {
            "name" : "material_2",
            "pbrMetallicRoughness" : {
                "baseColorFactor" : [
                    0.50588236608926,
                    0.533333309491475,
                    0.6313725088741258,
                    1.0
                ],
                "metallicFactor" : 0.0
            }
        }
    ],
    "meshes" : [
        {
            "name" : "ID27.001",
            "primitives" : [
                {
                    "attributes" : {
                        "NORMAL" : 2,
                        "POSITION" : 1
                    },
                    "indices" : 0,
                    "material" : 4
                }
            ]
        },
        {
            "name" : "ID35",
            "primitives" : [
                {
                    "attributes" : {
                        "NORMAL" : 5,
                        "POSITION" : 4
                    },
                    "indices" : 3,
                    "material" : 4
                }
            ]
        },
        {
            "name" : "ID35.001",
            "primitives" : [
                {
                    "attributes" : {
                        "NORMAL" : 8,
                        "POSITION" : 7
                    },
                    "indices" : 6,
                    "material" : 4
                }
            ]
        },
        {
            "name" : "ID15.001",
            "primitives" : [
                {
                    "attributes" : {
                        "NORMAL" : 11,
                        "POSITION" : 10
                    },
                    "indices" : 9,
                    "material" : 3
                }
            ]
        },
        {
            "name" : "ID41.001",
            "primitives" : [
                {
                    "attributes" : {
                        "NORMAL" : 14,
                        "POSITION" : 13
                    },
                    "indices" : 12,
                    "material" : 4
                }
            ]
        },
        {
            "name" : "ID41",
            "primitives" : [
                {
                    "attributes" : {
                        "NORMAL" : 17,
                        "POSITION" : 16
                    },
                    "indices" : 15,
                    "material" : 4
                }
            ]
        },
        {
            "name" : "ID47.001",
            "primitives" : [
                {
                    "attributes" : {
                        "NORMAL" : 20,
                        "POSITION" : 19
                    },
                    "indices" : 18,
                    "material" : 3
                }
            ]
        },
        {
            "name" : "ID15.003",
            "primitives" : [
                {
                    "attributes" : {
                        "NORMAL" : 23,
                        "POSITION" : 22
                    },
                    "indices" : 21,
                    "material" : 3
                }
            ]
        },
        {
            "name" : "ID47",
            "primitives" : [
                {
                    "attributes" : {
                        "NORMAL" : 26,
                        "POSITION" : 25
                    },
                    "indices" : 24,
                    "material" : 3
                }
            ]
        },
        {
            "name" : "ID27",
            "primitives" : [
                {
                    "attributes" : {
                        "NORMAL" : 29,
                        "POSITION" : 28
                    },
                    "indices" : 27,
                    "material" : 4
                }
            ]
        }
    ],
    "nodes" : [
        {
            "mesh" : 3,
            "name" : "group_1",
            "translation" : [
                78.74015808105469,
                -1.421084963300432e-14,
                -78.74015808105469
            ]
        },
        {
            "mesh" : 9,
            "name" : "group_1.001",
            "translation" : [
                78.74015808105469,
                -1.421084963300432e-14,
                -78.74015808105469
            ]
        },
        {
            "mesh" : 0,
            "name" : "group_1.001_collider",
            "translation" : [
                78.74015808105469,
                -1.421084963300432e-14,
                -78.74015808105469
            ]
        },
        {
            "mesh" : 1,
            "name" : "group_1.002",
            "translation" : [
                78.74015808105469,
                -1.421084963300432e-14,
                -78.74015808105469
            ]
        },
        {
            "mesh" : 2,
            "name" : "group_1.002_collider",
            "translation" : [
                78.74015808105469,
                -1.421084963300432e-14,
                -78.74015808105469
            ]
        },
        {
            "mesh" : 5,
            "name" : "group_1.003",
            "translation" : [
                78.74015808105469,
                -1.421084963300432e-14,
                -78.74015808105469
            ]
        },
        {
            "mesh" : 4,
            "name" : "group_1.003_collider",
            "translation" : [
                78.74015808105469,
                -1.421084963300432e-14,
                -78.74015808105469
            ]
        },
        {
            "mesh" : 8,
            "name" : "group_1.004",
            "translation" : [
                78.74015808105469,
                -1.421084963300432e-14,
                -78.74015808105469
            ]
        },
        {
            "mesh" : 6,
            "name" : "group_1.004_collider",
            "translation" : [
                78.74015808105469,
                -1.421084963300432e-14,
                -78.74015808105469
            ]
        },
        {
            "mesh" : 7,
            "name" : "group_1_collider",
            "translation" : [
                78.74015808105469,
                -1.421084963300432e-14,
                -78.74015808105469
            ]
        },
        {
            "children" : [
                0,
                1,
                2,
                3,
                4,
                5,
                6,
                7,
                8,
                9
            ],
            "name" : "SketchUp",
            "scale" : [
                0.02539999969303608,
                0.02539999969303608,
                0.02539999969303608
            ],
            "translation" : [
                -8.0,
                0.0,
                8.0
            ]
        }
    ],
    "scene" : 0,
    "scenes" : [
        {
            "name" : "Scene",
            "nodes" : [
                10
            ]
        }
    ]
}
