{
    "accessors" : [
        {
            "bufferView" : 0,
            "componentType" : 5123,
            "count" : 18,
            "max" : [
                10
            ],
            "min" : [
                0
            ],
            "type" : "SCALAR"
        },
        {
            "bufferView" : 1,
            "componentType" : 5126,
            "count" : 11,
            "max" : [
                233.393798828125,
                354.3306884765625,
                -45.46064758300781
            ],
            "min" : [
                39.370079040527344,
                354.3306884765625,
                -269.5
            ],
            "type" : "VEC3"
        },
        {
            "bufferView" : 2,
            "componentType" : 5126,
            "count" : 11,
            "max" : [
                -0.0,
                1.0,
                -0.0
            ],
            "min" : [
                -0.0,
                0.9999999403953552,
                -0.0
            ],
            "type" : "VEC3"
        },
        {
            "bufferView" : 3,
            "componentType" : 5123,
            "count" : 114,
            "max" : [
                54
            ],
            "min" : [
                0
            ],
            "type" : "SCALAR"
        },
        {
            "bufferView" : 4,
            "componentType" : 5126,
            "count" : 55,
            "max" : [
                238.66839599609375,
                354.3306884765625,
                -19.685039520263672
            ],
            "min" : [
                39.370079040527344,
                157.4803009033203,
                -269.5
            ],
            "type" : "VEC3"
        },
        {
            "bufferView" : 5,
            "componentType" : 5126,
            "count" : 55,
            "max" : [
                0.8660256862640381,
                1.0,
                1.0
            ],
            "min" : [
                -0.8660258650779724,
                -1.0,
                -1.0
            ],
            "type" : "VEC3"
        },
        {
            "bufferView" : 6,
            "componentType" : 5123,
            "count" : 84,
            "max" : [
                65
            ],
            "min" : [
                0
            ],
            "type" : "SCALAR"
        },
        {
            "bufferView" : 7,
            "componentType" : 5126,
            "count" : 66,
            "max" : [
                272.7638854980469,
                393.7007751464844,
                -0.0
            ],
            "min" : [
                0.0,
                78.74015808105469,
                -314.9606018066406
            ],
            "type" : "VEC3"
        },
        {
            "bufferView" : 8,
            "componentType" : 5126,
            "count" : 66,
            "max" : [
                1.0,
                1.0,
                0.8660255074501038
            ],
            "min" : [
                -1.0,
                -1.0,
                -0.8660255670547485
            ],
            "type" : "VEC3"
        },
        {
            "bufferView" : 9,
            "componentType" : 5123,
            "count" : 18,
            "max" : [
                10
            ],
            "min" : [
                0
            ],
            "type" : "SCALAR"
        },
        {
            "bufferView" : 10,
            "componentType" : 5126,
            "count" : 11,
            "max" : [
                233.393798828125,
                354.3306884765625,
                -45.46064758300781
            ],
            "min" : [
                39.370079040527344,
                354.3306884765625,
                -269.5
            ],
            "type" : "VEC3"
        },
        {
            "bufferView" : 11,
            "componentType" : 5126,
            "count" : 11,
            "max" : [
                -0.0,
                1.0,
                -0.0
            ],
            "min" : [
                -0.0,
                0.9999999403953552,
                -0.0
            ],
            "type" : "VEC3"
        },
        {
            "bufferView" : 12,
            "componentType" : 5123,
            "count" : 114,
            "max" : [
                54
            ],
            "min" : [
                0
            ],
            "type" : "SCALAR"
        },
        {
            "bufferView" : 13,
            "componentType" : 5126,
            "count" : 55,
            "max" : [
                238.66839599609375,
                354.3306884765625,
                -19.685039520263672
            ],
            "min" : [
                39.370079040527344,
                157.4803009033203,
                -269.5
            ],
            "type" : "VEC3"
        },
        {
            "bufferView" : 14,
            "componentType" : 5126,
            "count" : 55,
            "max" : [
                0.8660256862640381,
                1.0,
                1.0
            ],
            "min" : [
                -0.8660258650779724,
                -1.0,
                -1.0
            ],
            "type" : "VEC3"
        },
        {
            "bufferView" : 15,
            "componentType" : 5123,
            "count" : 84,
            "max" : [
                65
            ],
            "min" : [
                0
            ],
            "type" : "SCALAR"
        },
        {
            "bufferView" : 16,
            "componentType" : 5126,
            "count" : 66,
            "max" : [
                272.7638854980469,
                393.7007751464844,
                -0.0
            ],
            "min" : [
                0.0,
                78.74015808105469,
                -314.9606018066406
            ],
            "type" : "VEC3"
        },
        {
            "bufferView" : 17,
            "componentType" : 5126,
            "count" : 66,
            "max" : [
                1.0,
                1.0,
                0.8660255074501038
            ],
            "min" : [
                -1.0,
                -1.0,
                -0.8660255670547485
            ],
            "type" : "VEC3"
        }
    ],
    "asset" : {
        "generator" : "Khronos Blender glTF 2.0 exporter",
        "version" : "2.0"
    },
    "bufferViews" : [
        {
            "buffer" : 0,
            "byteLength" : 36,
            "byteOffset" : 0,
            "target" : 34963
        },
        {
            "buffer" : 0,
            "byteLength" : 132,
            "byteOffset" : 36,
            "target" : 34962
        },
        {
            "buffer" : 0,
            "byteLength" : 132,
            "byteOffset" : 168,
            "target" : 34962
        },
        {
            "buffer" : 0,
            "byteLength" : 228,
            "byteOffset" : 300,
            "target" : 34963
        },
        {
            "buffer" : 0,
            "byteLength" : 660,
            "byteOffset" : 528,
            "target" : 34962
        },
        {
            "buffer" : 0,
            "byteLength" : 660,
            "byteOffset" : 1188,
            "target" : 34962
        },
        {
            "buffer" : 0,
            "byteLength" : 168,
            "byteOffset" : 1848,
            "target" : 34963
        },
        {
            "buffer" : 0,
            "byteLength" : 792,
            "byteOffset" : 2016,
            "target" : 34962
        },
        {
            "buffer" : 0,
            "byteLength" : 792,
            "byteOffset" : 2808,
            "target" : 34962
        },
        {
            "buffer" : 0,
            "byteLength" : 36,
            "byteOffset" : 3600,
            "target" : 34963
        },
        {
            "buffer" : 0,
            "byteLength" : 132,
            "byteOffset" : 3636,
            "target" : 34962
        },
        {
            "buffer" : 0,
            "byteLength" : 132,
            "byteOffset" : 3768,
            "target" : 34962
        },
        {
            "buffer" : 0,
            "byteLength" : 228,
            "byteOffset" : 3900,
            "target" : 34963
        },
        {
            "buffer" : 0,
            "byteLength" : 660,
            "byteOffset" : 4128,
            "target" : 34962
        },
        {
            "buffer" : 0,
            "byteLength" : 660,
            "byteOffset" : 4788,
            "target" : 34962
        },
        {
            "buffer" : 0,
            "byteLength" : 168,
            "byteOffset" : 5448,
            "target" : 34963
        },
        {
            "buffer" : 0,
            "byteLength" : 792,
            "byteOffset" : 5616,
            "target" : 34962
        },
        {
            "buffer" : 0,
            "byteLength" : 792,
            "byteOffset" : 6408,
            "target" : 34962
        }
    ],
    "buffers" : [
        {
            "byteLength" : 7200,
            "uri" : "terrain_0003_hex_cavern.bin"
        }
    ],
    "materials" : [
        {
            "alphaMode" : "BLEND",
            "name" : "edge_color000255.004",
            "pbrMetallicRoughness" : {
                "baseColorFactor" : [
                    0.6400000190734865,
                    0.6400000190734865,
                    0.6400000190734865,
                    1.0
                ],
                "metallicFactor" : 0.0
            }
        },
        {
            "alphaMode" : "BLEND",
            "name" : "edge_color8087112255.004",
            "pbrMetallicRoughness" : {
                "baseColorFactor" : [
                    0.6400000190734865,
                    0.6400000190734865,
                    0.6400000190734865,
                    1.0
                ],
                "metallicFactor" : 0.0
            }
        },
        {
            "name" : "material.004",
            "pbrMetallicRoughness" : {
                "metallicFactor" : 0.0
            }
        },
        {
            "name" : "material_16.002",
            "pbrMetallicRoughness" : {
                "baseColorFactor" : [
                    1.0,
                    0.24705880880355835,
                    0.2588235139846802,
                    1.0
                ],
                "metallicFactor" : 0.0
            }
        },
        {
            "name" : "material_4.004",
            "pbrMetallicRoughness" : {
                "baseColorFactor" : [
                    0.3137255000133141,
                    0.3411765149411039,
                    0.4392157143237547,
                    1.0
                ],
                "metallicFactor" : 0.0
            }
        }
    ],
    "meshes" : [
        {
            "name" : "ID25.003",
            "primitives" : [
                {
                    "attributes" : {
                        "NORMAL" : 2,
                        "POSITION" : 1
                    },
                    "indices" : 0,
                    "material" : 2
                },
                {
                    "attributes" : {
                        "NORMAL" : 5,
                        "POSITION" : 4
                    },
                    "indices" : 3,
                    "material" : 3
                }
            ]
        },
        {
            "name" : "ID15.005",
            "primitives" : [
                {
                    "attributes" : {
                        "NORMAL" : 8,
                        "POSITION" : 7
                    },
                    "indices" : 6,
                    "material" : 4
                }
            ]
        },
        {
            "name" : "ID25.002",
            "primitives" : [
                {
                    "attributes" : {
                        "NORMAL" : 11,
                        "POSITION" : 10
                    },
                    "indices" : 9,
                    "material" : 2
                },
                {
                    "attributes" : {
                        "NORMAL" : 14,
                        "POSITION" : 13
                    },
                    "indices" : 12,
                    "material" : 3
                }
            ]
        },
        {
            "name" : "ID15.006",
            "primitives" : [
                {
                    "attributes" : {
                        "NORMAL" : 17,
                        "POSITION" : 16
                    },
                    "indices" : 15,
                    "material" : 4
                }
            ]
        }
    ],
    "nodes" : [
        {
            "mesh" : 1,
            "name" : "massing 1",
            "translation" : [
                -136.3820037841797,
                -78.74015808105469,
                157.4803009033203
            ]
        },
        {
            "mesh" : 3,
            "name" : "massing 1_collider",
            "translation" : [
                -136.3820037841797,
                -78.74015808105469,
                157.4803009033203
            ]
        },
        {
            "mesh" : 2,
            "name" : "massing 2",
            "translation" : [
                -136.3820037841797,
                -78.74015808105469,
                157.4803009033203
            ]
        },
        {
            "mesh" : 0,
            "name" : "massing 2_collider",
            "translation" : [
                -136.3820037841797,
                -78.74015808105469,
                157.4803009033203
            ]
        },
        {
            "children" : [
                0,
                1,
                2,
                3
            ],
            "name" : "SketchUp",
            "scale" : [
                0.02539999969303608,
                0.02539999969303608,
                0.02539999969303608
            ]
        }
    ],
    "scene" : 0,
    "scenes" : [
        {
            "name" : "Scene",
            "nodes" : [
                4
            ]
        }
    ]
}
