{
    "accessors" : [
        {
            "bufferView" : 0,
            "componentType" : 5123,
            "count" : 252,
            "max" : [
                229
            ],
            "min" : [
                0
            ],
            "type" : "SCALAR"
        },
        {
            "bufferView" : 1,
            "componentType" : 5126,
            "count" : 230,
            "max" : [
                457.4580993652344,
                111.13169860839844,
                -0.0
            ],
            "min" : [
                0.0,
                0.0,
                -554.8615112304688
            ],
            "type" : "VEC3"
        },
        {
            "bufferView" : 2,
            "componentType" : 5126,
            "count" : 230,
            "max" : [
                0.8920406699180603,
                1.0,
                0.6991086006164551
            ],
            "min" : [
                -0.6900596022605896,
                -1.0,
                -0.9747525453567505
            ],
            "type" : "VEC3"
        },
        {
            "bufferView" : 3,
            "componentType" : 5123,
            "count" : 252,
            "max" : [
                229
            ],
            "min" : [
                0
            ],
            "type" : "SCALAR"
        },
        {
            "bufferView" : 4,
            "componentType" : 5126,
            "count" : 230,
            "max" : [
                457.4580993652344,
                111.13169860839844,
                -0.0
            ],
            "min" : [
                0.0,
                0.0,
                -554.8615112304688
            ],
            "type" : "VEC3"
        },
        {
            "bufferView" : 5,
            "componentType" : 5126,
            "count" : 230,
            "max" : [
                0.8920406699180603,
                1.0,
                0.6991086006164551
            ],
            "min" : [
                -0.6900596022605896,
                -1.0,
                -0.9747525453567505
            ],
            "type" : "VEC3"
        }
    ],
    "asset" : {
        "generator" : "Khronos Blender glTF 2.0 exporter",
        "version" : "2.0"
    },
    "bufferViews" : [
        {
            "buffer" : 0,
            "byteLength" : 504,
            "byteOffset" : 0,
            "target" : 34963
        },
        {
            "buffer" : 0,
            "byteLength" : 2760,
            "byteOffset" : 504,
            "target" : 34962
        },
        {
            "buffer" : 0,
            "byteLength" : 2760,
            "byteOffset" : 3264,
            "target" : 34962
        },
        {
            "buffer" : 0,
            "byteLength" : 504,
            "byteOffset" : 6024,
            "target" : 34963
        },
        {
            "buffer" : 0,
            "byteLength" : 2760,
            "byteOffset" : 6528,
            "target" : 34962
        },
        {
            "buffer" : 0,
            "byteLength" : 2760,
            "byteOffset" : 9288,
            "target" : 34962
        }
    ],
    "buffers" : [
        {
            "byteLength" : 12048,
            "uri" : "terrain_massing1_v01.bin"
        }
    ],
    "materials" : [
        {
            "alphaMode" : "BLEND",
            "name" : "edge_color129136161255",
            "pbrMetallicRoughness" : {
                "baseColorFactor" : [
                    0.6400000190734865,
                    0.6400000190734865,
                    0.6400000190734865,
                    1.0
                ],
                "metallicFactor" : 0.0
            }
        },
        {
            "name" : "material_2",
            "pbrMetallicRoughness" : {
                "baseColorFactor" : [
                    0.50588236608926,
                    0.533333309491475,
                    0.6313725088741258,
                    1.0
                ],
                "metallicFactor" : 0.0
            }
        }
    ],
    "meshes" : [
        {
            "name" : "ID15.001",
            "primitives" : [
                {
                    "attributes" : {
                        "NORMAL" : 2,
                        "POSITION" : 1
                    },
                    "indices" : 0,
                    "material" : 1
                }
            ]
        },
        {
            "name" : "ID15",
            "primitives" : [
                {
                    "attributes" : {
                        "NORMAL" : 5,
                        "POSITION" : 4
                    },
                    "indices" : 3,
                    "material" : 1
                }
            ]
        }
    ],
    "nodes" : [
        {
            "mesh" : 1,
            "name" : "massing",
            "translation" : [
                -204.4801788330078,
                -1.1372820003449635e-13,
                290.939697265625
            ]
        },
        {
            "mesh" : 0,
            "name" : "massing_collider",
            "translation" : [
                -204.4801788330078,
                -1.1372820003449635e-13,
                290.939697265625
            ]
        },
        {
            "children" : [
                0,
                1
            ],
            "name" : "SketchUp",
            "scale" : [
                0.02539999969303608,
                0.02539999969303608,
                0.02539999969303608
            ]
        }
    ],
    "scene" : 0,
    "scenes" : [
        {
            "name" : "Scene",
            "nodes" : [
                2
            ]
        }
    ]
}
